<?xml version="1.0" ?><svg xmlns="http://www.w3.org/2000/svg" xmlns:xlink="http://www.w3.org/1999/xlink" version="1.1" viewBox="0 0 512 512" style="enable-background:new 0 0 512 512;" xml:space="preserve"><g id="_x31_9_x2C__Vulture_x2C__ornithology_x2C__zoo_x2C__bird_x2C__animals_x2C__animal"><g><g><g><g><path style="fill:#E6A441;" d="M471.811,45.962v28.725c0.976,0.136,18.282-1.338,35.924,10.173       C505.275,65.41,490.821,49.896,471.811,45.962z"/><path style="fill:#E6A441;" d="M60.414,399.52L4.265,508.748c12.298-2.571,29.62-7.515,42.166-16.443       c5.836-26.414,17.886-69.462,24.622-93.023C67.688,399.687,65.091,400.098,60.414,399.52z"/><path style="fill:#E6A441;" d="M88.369,396.738C80.779,423.084,61.841,490.054,59.111,511c2.551-0.45,6.795-1.842,12.438-5.547       c11.984-7.868,40.505-33.407,52.159-102.682c-6.734-2.581-13.562-5.586-20.475-8.987       C98.333,394.877,93.379,395.864,88.369,396.738z"/><path style="fill:#E6A441;" d="M235.973,305.202c18.839-18.149,33.303-36.863,44.039-53.231       C221.221,271.4,151.548,283.23,95.14,256.778c-6.434,13.544-12.229,26.646-17.352,38.838       C94.859,318.198,136.986,345.325,235.973,305.202z"/><path style="fill:#404040;" d="M338.983,221.776c-7.345-4.463-15.733-5.941-23.577-4.923       c-3.174,10.002-7.489,19.764-12.937,29.117c-39.65,68.072-99.788,118.044-174.667,141.282       c14.899,5.842,29.248,9.485,43.009,10.937v72.077l-18.773,22.527c-2.818,3.383-2.361,8.41,1.02,11.228       c3.383,2.819,8.409,2.361,11.228-1.02l14.496-17.396l14.496,17.396c2.824,3.387,7.85,3.834,11.228,1.02       c3.382-2.818,3.838-7.845,1.02-11.228l-18.773-22.527v-71.383c23.347-0.485,45.567-7.707,66.537-23.522v94.905l-18.773,22.527       c-2.818,3.383-2.361,8.41,1.02,11.228c3.383,2.819,8.409,2.361,11.228-1.02l14.496-17.396l14.496,17.396       c2.824,3.387,7.85,3.834,11.228,1.02c3.382-2.818,3.838-7.845,1.02-11.228l-18.773-22.527v-108.88       C314.797,315.447,334.45,241.273,338.983,221.776z"/><path style="fill:#404040;" d="M66.684,383.748c56.041-6.299,100.245-25.868,134.587-49.927       c-20.705,5.567-38.638,7.912-54.127,7.912c-38.661,0-62.185-14.516-76.171-29.484c-12.215,30.595-19.296,52.682-20.486,56.466       C48.946,380.015,55.399,384.54,66.684,383.748z"/><path style="fill:#404040;" d="M292.618,230.679c12.898-25.729,17.166-55.66,9.668-85.146       c-16.819-66.126-83.259-61.251-116.652-27.452c-33.387,33.793-61.614,80.43-83.513,124.355       C148.552,264.112,212.57,260.17,292.618,230.679z"/><path style="fill:#E6A441;" d="M424.773,1.012c-16.208,0.443-29.394,14.288-29.394,30.862v79.016       c0,18.268-16.732,31.987-34.67,28.358c-8.425-1.704-15.621-7.047-19.745-14.658c-6.824-12.592-18.021-28.297-32.611-31.601       c-5.544-1.255-11.246-0.63-17.242,1.892c11.247,9.617,20.942,24.374,26.626,46.721c4.946,19.452,5.476,39.512,1.774,59.018       c10.878-0.118,21.803,3.123,31.072,9.736c26.772-1.792,48.286-15.937,63.979-42.09c13.084-21.806,18.637-47.158,19.176-58.879       c0.295-6.563,3.109-12.63,7.925-17.072l14.205-13.142V31.245C455.868,14.285,441.908,0.539,424.773,1.012z M425.512,40.858       c-4.403,0-7.972-3.569-7.972-7.972s3.569-7.972,7.972-7.972c4.403,0,7.972,3.569,7.972,7.972S429.915,40.858,425.512,40.858z"/></g></g></g></g></g><g id="Layer_1"/></svg>